<mxfile host="app.diagrams.net" modified="2024-05-22T18:38:04.841Z" agent="Mozilla/5.0 (Windows NT 10.0; Win64; x64) AppleWebKit/537.36 (KHTML, like Gecko) Chrome/125.0.0.0 Safari/537.36 Edg/125.0.0.0" etag="We3w-jRyByvkNYFJREGk" version="24.4.4" type="github">
  <diagram name="Page-1" id="0t2ZFOefBYsRxvHHrsCI">
    <mxGraphModel dx="6450" dy="4775" grid="1" gridSize="10" guides="1" tooltips="1" connect="1" arrows="1" fold="1" page="1" pageScale="1" pageWidth="850" pageHeight="1100" math="0" shadow="0">
      <root>
        <mxCell id="0" />
        <mxCell id="1" parent="0" />
        <mxCell id="zvO2mVmISyGZYsIIFdji-1" value="" style="rounded=0;whiteSpace=wrap;html=1;sketch=1;hachureGap=4;jiggle=2;curveFitting=1;fontFamily=Architects Daughter;fontSource=https%3A%2F%2Ffonts.googleapis.com%2Fcss%3Ffamily%3DArchitects%2BDaughter;" vertex="1" parent="1">
          <mxGeometry x="2590" y="-720" width="1170" height="840" as="geometry" />
        </mxCell>
        <mxCell id="zvO2mVmISyGZYsIIFdji-2" value="" style="rounded=0;whiteSpace=wrap;html=1;sketch=1;hachureGap=4;jiggle=2;curveFitting=1;fontFamily=Architects Daughter;fontSource=https%3A%2F%2Ffonts.googleapis.com%2Fcss%3Ffamily%3DArchitects%2BDaughter;" vertex="1" parent="1">
          <mxGeometry x="1430" y="-695" width="1050" height="840" as="geometry" />
        </mxCell>
        <mxCell id="zvO2mVmISyGZYsIIFdji-3" value="" style="rounded=0;whiteSpace=wrap;html=1;sketch=1;hachureGap=4;jiggle=2;curveFitting=1;fontFamily=Architects Daughter;fontSource=https%3A%2F%2Ffonts.googleapis.com%2Fcss%3Ffamily%3DArchitects%2BDaughter;" vertex="1" parent="1">
          <mxGeometry x="350" y="-495" width="1050" height="840" as="geometry" />
        </mxCell>
        <mxCell id="zvO2mVmISyGZYsIIFdji-4" value="" style="rounded=0;whiteSpace=wrap;html=1;sketch=1;hachureGap=4;jiggle=2;curveFitting=1;fontFamily=Architects Daughter;fontSource=https%3A%2F%2Ffonts.googleapis.com%2Fcss%3Ffamily%3DArchitects%2BDaughter;" vertex="1" parent="1">
          <mxGeometry x="-740" y="-460" width="1050" height="770" as="geometry" />
        </mxCell>
        <mxCell id="zvO2mVmISyGZYsIIFdji-5" value="SiteMap For Library Management System" style="text;html=1;align=center;verticalAlign=middle;whiteSpace=wrap;rounded=0;fontFamily=Architects Daughter;fontSource=https%3A%2F%2Ffonts.googleapis.com%2Fcss%3Ffamily%3DArchitects%2BDaughter;" vertex="1" parent="1">
          <mxGeometry x="1210" y="-1380" width="290" height="30" as="geometry" />
        </mxCell>
        <mxCell id="zvO2mVmISyGZYsIIFdji-6" style="edgeStyle=orthogonalEdgeStyle;rounded=0;sketch=1;hachureGap=4;jiggle=2;curveFitting=1;orthogonalLoop=1;jettySize=auto;html=1;fontFamily=Architects Daughter;fontSource=https%3A%2F%2Ffonts.googleapis.com%2Fcss%3Ffamily%3DArchitects%2BDaughter;" edge="1" parent="1" source="zvO2mVmISyGZYsIIFdji-7" target="zvO2mVmISyGZYsIIFdji-53">
          <mxGeometry relative="1" as="geometry" />
        </mxCell>
        <mxCell id="zvO2mVmISyGZYsIIFdji-7" value="Landing Page" style="html=1;whiteSpace=wrap;strokeColor=none;fillColor=#0079D6;labelPosition=center;verticalLabelPosition=middle;verticalAlign=top;align=center;fontSize=12;outlineConnect=0;spacingTop=-6;fontColor=#FFFFFF;sketch=0;shape=mxgraph.sitemap.page;hachureGap=4;jiggle=2;curveFitting=1;fontFamily=Architects Daughter;fontSource=https%3A%2F%2Ffonts.googleapis.com%2Fcss%3Ffamily%3DArchitects%2BDaughter;" vertex="1" parent="1">
          <mxGeometry x="1300" y="-1310" width="120" height="70" as="geometry" />
        </mxCell>
        <mxCell id="zvO2mVmISyGZYsIIFdji-8" style="edgeStyle=orthogonalEdgeStyle;rounded=0;sketch=1;hachureGap=4;jiggle=2;curveFitting=1;orthogonalLoop=1;jettySize=auto;html=1;entryX=0.25;entryY=0;entryDx=0;entryDy=0;entryPerimeter=0;fontFamily=Architects Daughter;fontSource=https%3A%2F%2Ffonts.googleapis.com%2Fcss%3Ffamily%3DArchitects%2BDaughter;" edge="1" parent="1" source="zvO2mVmISyGZYsIIFdji-7" target="zvO2mVmISyGZYsIIFdji-21">
          <mxGeometry relative="1" as="geometry" />
        </mxCell>
        <mxCell id="zvO2mVmISyGZYsIIFdji-9" value="" style="group" vertex="1" connectable="0" parent="1">
          <mxGeometry x="-720" y="-430" width="910" height="710" as="geometry" />
        </mxCell>
        <mxCell id="zvO2mVmISyGZYsIIFdji-10" style="edgeStyle=orthogonalEdgeStyle;rounded=0;sketch=1;hachureGap=4;jiggle=2;curveFitting=1;orthogonalLoop=1;jettySize=auto;html=1;fontFamily=Architects Daughter;fontSource=https%3A%2F%2Ffonts.googleapis.com%2Fcss%3Ffamily%3DArchitects%2BDaughter;" edge="1" parent="zvO2mVmISyGZYsIIFdji-9" source="zvO2mVmISyGZYsIIFdji-19" target="zvO2mVmISyGZYsIIFdji-11">
          <mxGeometry relative="1" as="geometry" />
        </mxCell>
        <mxCell id="zvO2mVmISyGZYsIIFdji-11" value="Penalty Page" style="html=1;whiteSpace=wrap;strokeColor=none;fillColor=#0079D6;labelPosition=center;verticalLabelPosition=middle;verticalAlign=top;align=center;fontSize=12;outlineConnect=0;spacingTop=-6;fontColor=#FFFFFF;sketch=0;shape=mxgraph.sitemap.page;hachureGap=4;jiggle=2;curveFitting=1;fontFamily=Architects Daughter;fontSource=https%3A%2F%2Ffonts.googleapis.com%2Fcss%3Ffamily%3DArchitects%2BDaughter;" vertex="1" parent="zvO2mVmISyGZYsIIFdji-9">
          <mxGeometry x="790" y="480" width="120" height="70" as="geometry" />
        </mxCell>
        <mxCell id="zvO2mVmISyGZYsIIFdji-12" value="" style="group" vertex="1" connectable="0" parent="zvO2mVmISyGZYsIIFdji-9">
          <mxGeometry width="820" height="710" as="geometry" />
        </mxCell>
        <mxCell id="zvO2mVmISyGZYsIIFdji-13" style="edgeStyle=orthogonalEdgeStyle;rounded=0;sketch=1;hachureGap=4;jiggle=2;curveFitting=1;orthogonalLoop=1;jettySize=auto;html=1;fontFamily=Architects Daughter;fontSource=https%3A%2F%2Ffonts.googleapis.com%2Fcss%3Ffamily%3DArchitects%2BDaughter;" edge="1" parent="zvO2mVmISyGZYsIIFdji-12" source="zvO2mVmISyGZYsIIFdji-19" target="zvO2mVmISyGZYsIIFdji-22">
          <mxGeometry relative="1" as="geometry" />
        </mxCell>
        <mxCell id="zvO2mVmISyGZYsIIFdji-14" style="edgeStyle=orthogonalEdgeStyle;rounded=0;sketch=1;hachureGap=4;jiggle=2;curveFitting=1;orthogonalLoop=1;jettySize=auto;html=1;fontFamily=Architects Daughter;fontSource=https%3A%2F%2Ffonts.googleapis.com%2Fcss%3Ffamily%3DArchitects%2BDaughter;" edge="1" parent="zvO2mVmISyGZYsIIFdji-12" source="zvO2mVmISyGZYsIIFdji-19" target="zvO2mVmISyGZYsIIFdji-25">
          <mxGeometry relative="1" as="geometry" />
        </mxCell>
        <mxCell id="zvO2mVmISyGZYsIIFdji-15" style="edgeStyle=orthogonalEdgeStyle;rounded=0;sketch=1;hachureGap=4;jiggle=2;curveFitting=1;orthogonalLoop=1;jettySize=auto;html=1;fontFamily=Architects Daughter;fontSource=https%3A%2F%2Ffonts.googleapis.com%2Fcss%3Ffamily%3DArchitects%2BDaughter;" edge="1" parent="zvO2mVmISyGZYsIIFdji-12" source="zvO2mVmISyGZYsIIFdji-19" target="zvO2mVmISyGZYsIIFdji-27">
          <mxGeometry relative="1" as="geometry" />
        </mxCell>
        <mxCell id="zvO2mVmISyGZYsIIFdji-16" style="edgeStyle=orthogonalEdgeStyle;rounded=0;sketch=1;hachureGap=4;jiggle=2;curveFitting=1;orthogonalLoop=1;jettySize=auto;html=1;fontFamily=Architects Daughter;fontSource=https%3A%2F%2Ffonts.googleapis.com%2Fcss%3Ffamily%3DArchitects%2BDaughter;" edge="1" parent="zvO2mVmISyGZYsIIFdji-12" source="zvO2mVmISyGZYsIIFdji-19" target="zvO2mVmISyGZYsIIFdji-29">
          <mxGeometry relative="1" as="geometry" />
        </mxCell>
        <mxCell id="zvO2mVmISyGZYsIIFdji-17" style="edgeStyle=orthogonalEdgeStyle;rounded=0;sketch=1;hachureGap=4;jiggle=2;curveFitting=1;orthogonalLoop=1;jettySize=auto;html=1;fontFamily=Architects Daughter;fontSource=https%3A%2F%2Ffonts.googleapis.com%2Fcss%3Ffamily%3DArchitects%2BDaughter;" edge="1" parent="zvO2mVmISyGZYsIIFdji-12" source="zvO2mVmISyGZYsIIFdji-19" target="zvO2mVmISyGZYsIIFdji-30">
          <mxGeometry relative="1" as="geometry" />
        </mxCell>
        <mxCell id="zvO2mVmISyGZYsIIFdji-18" style="edgeStyle=orthogonalEdgeStyle;rounded=0;sketch=1;hachureGap=4;jiggle=2;curveFitting=1;orthogonalLoop=1;jettySize=auto;html=1;fontFamily=Architects Daughter;fontSource=https%3A%2F%2Ffonts.googleapis.com%2Fcss%3Ffamily%3DArchitects%2BDaughter;" edge="1" parent="zvO2mVmISyGZYsIIFdji-12" source="zvO2mVmISyGZYsIIFdji-19" target="zvO2mVmISyGZYsIIFdji-31">
          <mxGeometry relative="1" as="geometry" />
        </mxCell>
        <mxCell id="zvO2mVmISyGZYsIIFdji-19" value="Home Dashboard" style="html=1;whiteSpace=wrap;strokeColor=none;fillColor=#0079D6;labelPosition=center;verticalLabelPosition=middle;verticalAlign=top;align=center;fontSize=12;outlineConnect=0;spacingTop=-6;fontColor=#FFFFFF;sketch=0;shape=mxgraph.sitemap.home;hachureGap=4;jiggle=2;curveFitting=1;fontFamily=Architects Daughter;fontSource=https%3A%2F%2Ffonts.googleapis.com%2Fcss%3Ffamily%3DArchitects%2BDaughter;" vertex="1" parent="zvO2mVmISyGZYsIIFdji-12">
          <mxGeometry x="360" y="140" width="120" height="60" as="geometry" />
        </mxCell>
        <mxCell id="zvO2mVmISyGZYsIIFdji-20" style="edgeStyle=orthogonalEdgeStyle;rounded=0;sketch=1;hachureGap=4;jiggle=2;curveFitting=1;orthogonalLoop=1;jettySize=auto;html=1;fontFamily=Architects Daughter;fontSource=https%3A%2F%2Ffonts.googleapis.com%2Fcss%3Ffamily%3DArchitects%2BDaughter;" edge="1" parent="zvO2mVmISyGZYsIIFdji-12" source="zvO2mVmISyGZYsIIFdji-21" target="zvO2mVmISyGZYsIIFdji-19">
          <mxGeometry relative="1" as="geometry" />
        </mxCell>
        <mxCell id="zvO2mVmISyGZYsIIFdji-21" value="Login Page" style="html=1;whiteSpace=wrap;strokeColor=none;fillColor=#0079D6;labelPosition=center;verticalLabelPosition=middle;verticalAlign=top;align=center;fontSize=12;outlineConnect=0;spacingTop=-6;fontColor=#FFFFFF;sketch=0;shape=mxgraph.sitemap.page;hachureGap=4;jiggle=2;curveFitting=1;fontFamily=Architects Daughter;fontSource=https%3A%2F%2Ffonts.googleapis.com%2Fcss%3Ffamily%3DArchitects%2BDaughter;" vertex="1" parent="zvO2mVmISyGZYsIIFdji-12">
          <mxGeometry x="360" width="120" height="70" as="geometry" />
        </mxCell>
        <mxCell id="zvO2mVmISyGZYsIIFdji-22" value="Approve , Update , Manage user Account Page" style="html=1;whiteSpace=wrap;strokeColor=none;fillColor=#0079D6;labelPosition=center;verticalLabelPosition=middle;verticalAlign=top;align=center;fontSize=12;outlineConnect=0;spacingTop=-6;fontColor=#FFFFFF;sketch=0;shape=mxgraph.sitemap.page;hachureGap=4;jiggle=2;curveFitting=1;fontFamily=Architects Daughter;fontSource=https%3A%2F%2Ffonts.googleapis.com%2Fcss%3Ffamily%3DArchitects%2BDaughter;" vertex="1" parent="zvO2mVmISyGZYsIIFdji-12">
          <mxGeometry x="550" y="420" width="120" height="70" as="geometry" />
        </mxCell>
        <mxCell id="zvO2mVmISyGZYsIIFdji-23" value="Verify &amp;amp; Approve Account Renewal requests Page" style="html=1;whiteSpace=wrap;strokeColor=none;fillColor=#0079D6;labelPosition=center;verticalLabelPosition=middle;verticalAlign=top;align=center;fontSize=12;outlineConnect=0;spacingTop=-6;fontColor=#FFFFFF;sketch=0;shape=mxgraph.sitemap.page;hachureGap=4;jiggle=2;curveFitting=1;fontFamily=Architects Daughter;fontSource=https%3A%2F%2Ffonts.googleapis.com%2Fcss%3Ffamily%3DArchitects%2BDaughter;" vertex="1" parent="zvO2mVmISyGZYsIIFdji-12">
          <mxGeometry x="330" y="510" width="120" height="70" as="geometry" />
        </mxCell>
        <mxCell id="zvO2mVmISyGZYsIIFdji-24" value="Book Check Out History Page" style="html=1;whiteSpace=wrap;strokeColor=none;fillColor=#0079D6;labelPosition=center;verticalLabelPosition=middle;verticalAlign=top;align=center;fontSize=12;outlineConnect=0;spacingTop=-6;fontColor=#FFFFFF;sketch=0;shape=mxgraph.sitemap.page;hachureGap=4;jiggle=2;curveFitting=1;fontFamily=Architects Daughter;fontSource=https%3A%2F%2Ffonts.googleapis.com%2Fcss%3Ffamily%3DArchitects%2BDaughter;" vertex="1" parent="zvO2mVmISyGZYsIIFdji-12">
          <mxGeometry x="110" y="410" width="120" height="70" as="geometry" />
        </mxCell>
        <mxCell id="zvO2mVmISyGZYsIIFdji-25" value="Add Book Page, Search Book, update book , delete , update books status&amp;nbsp; page" style="html=1;whiteSpace=wrap;strokeColor=none;fillColor=#0079D6;labelPosition=center;verticalLabelPosition=middle;verticalAlign=top;align=center;fontSize=12;outlineConnect=0;spacingTop=-6;fontColor=#FFFFFF;sketch=0;shape=mxgraph.sitemap.page;hachureGap=4;jiggle=2;curveFitting=1;fontFamily=Architects Daughter;fontSource=https%3A%2F%2Ffonts.googleapis.com%2Fcss%3Ffamily%3DArchitects%2BDaughter;" vertex="1" parent="zvO2mVmISyGZYsIIFdji-12">
          <mxGeometry x="260" y="360" width="120" height="70" as="geometry" />
        </mxCell>
        <mxCell id="zvO2mVmISyGZYsIIFdji-26" value="Issue books page (check - out)" style="html=1;whiteSpace=wrap;strokeColor=none;fillColor=#0079D6;labelPosition=center;verticalLabelPosition=middle;verticalAlign=top;align=center;fontSize=12;outlineConnect=0;spacingTop=-6;fontColor=#FFFFFF;sketch=0;shape=mxgraph.sitemap.page;hachureGap=4;jiggle=2;curveFitting=1;fontFamily=Architects Daughter;fontSource=https%3A%2F%2Ffonts.googleapis.com%2Fcss%3Ffamily%3DArchitects%2BDaughter;" vertex="1" parent="zvO2mVmISyGZYsIIFdji-12">
          <mxGeometry x="480" y="530" width="120" height="70" as="geometry" />
        </mxCell>
        <mxCell id="zvO2mVmISyGZYsIIFdji-27" value="Receive books page(Check - in )" style="html=1;whiteSpace=wrap;strokeColor=none;fillColor=#0079D6;labelPosition=center;verticalLabelPosition=middle;verticalAlign=top;align=center;fontSize=12;outlineConnect=0;spacingTop=-6;fontColor=#FFFFFF;sketch=0;shape=mxgraph.sitemap.page;hachureGap=4;jiggle=2;curveFitting=1;fontFamily=Architects Daughter;fontSource=https%3A%2F%2Ffonts.googleapis.com%2Fcss%3Ffamily%3DArchitects%2BDaughter;" vertex="1" parent="zvO2mVmISyGZYsIIFdji-12">
          <mxGeometry x="700" y="340" width="120" height="70" as="geometry" />
        </mxCell>
        <mxCell id="zvO2mVmISyGZYsIIFdji-28" value="Book Renewal Page" style="html=1;whiteSpace=wrap;strokeColor=none;fillColor=#0079D6;labelPosition=center;verticalLabelPosition=middle;verticalAlign=top;align=center;fontSize=12;outlineConnect=0;spacingTop=-6;fontColor=#FFFFFF;sketch=0;shape=mxgraph.sitemap.page;hachureGap=4;jiggle=2;curveFitting=1;fontFamily=Architects Daughter;fontSource=https%3A%2F%2Ffonts.googleapis.com%2Fcss%3Ffamily%3DArchitects%2BDaughter;" vertex="1" parent="zvO2mVmISyGZYsIIFdji-12">
          <mxGeometry x="180" y="530" width="120" height="70" as="geometry" />
        </mxCell>
        <mxCell id="zvO2mVmISyGZYsIIFdji-29" value="Library Card Renewal Page" style="html=1;whiteSpace=wrap;strokeColor=none;fillColor=#0079D6;labelPosition=center;verticalLabelPosition=middle;verticalAlign=top;align=center;fontSize=12;outlineConnect=0;spacingTop=-6;fontColor=#FFFFFF;sketch=0;shape=mxgraph.sitemap.page;hachureGap=4;jiggle=2;curveFitting=1;fontFamily=Architects Daughter;fontSource=https%3A%2F%2Ffonts.googleapis.com%2Fcss%3Ffamily%3DArchitects%2BDaughter;" vertex="1" parent="zvO2mVmISyGZYsIIFdji-12">
          <mxGeometry x="400" y="370" width="120" height="70" as="geometry" />
        </mxCell>
        <mxCell id="zvO2mVmISyGZYsIIFdji-30" value="View All Users Page" style="html=1;whiteSpace=wrap;strokeColor=none;fillColor=#0079D6;labelPosition=center;verticalLabelPosition=middle;verticalAlign=top;align=center;fontSize=12;outlineConnect=0;spacingTop=-6;fontColor=#FFFFFF;sketch=0;shape=mxgraph.sitemap.page;hachureGap=4;jiggle=2;curveFitting=1;fontFamily=Architects Daughter;fontSource=https%3A%2F%2Ffonts.googleapis.com%2Fcss%3Ffamily%3DArchitects%2BDaughter;" vertex="1" parent="zvO2mVmISyGZYsIIFdji-12">
          <mxGeometry x="630" y="560" width="120" height="70" as="geometry" />
        </mxCell>
        <mxCell id="zvO2mVmISyGZYsIIFdji-31" value="Feedbak Page" style="html=1;whiteSpace=wrap;strokeColor=none;fillColor=#0079D6;labelPosition=center;verticalLabelPosition=middle;verticalAlign=top;align=center;fontSize=12;outlineConnect=0;spacingTop=-6;fontColor=#FFFFFF;sketch=0;shape=mxgraph.sitemap.page;hachureGap=4;jiggle=2;curveFitting=1;fontFamily=Architects Daughter;fontSource=https%3A%2F%2Ffonts.googleapis.com%2Fcss%3Ffamily%3DArchitects%2BDaughter;" vertex="1" parent="zvO2mVmISyGZYsIIFdji-12">
          <mxGeometry y="530" width="120" height="70" as="geometry" />
        </mxCell>
        <mxCell id="zvO2mVmISyGZYsIIFdji-32" style="edgeStyle=orthogonalEdgeStyle;rounded=0;sketch=1;hachureGap=4;jiggle=2;curveFitting=1;orthogonalLoop=1;jettySize=auto;html=1;entryX=0.5;entryY=0;entryDx=0;entryDy=0;entryPerimeter=0;fontFamily=Architects Daughter;fontSource=https%3A%2F%2Ffonts.googleapis.com%2Fcss%3Ffamily%3DArchitects%2BDaughter;" edge="1" parent="zvO2mVmISyGZYsIIFdji-12" source="zvO2mVmISyGZYsIIFdji-19" target="zvO2mVmISyGZYsIIFdji-23">
          <mxGeometry relative="1" as="geometry" />
        </mxCell>
        <mxCell id="zvO2mVmISyGZYsIIFdji-33" style="edgeStyle=orthogonalEdgeStyle;rounded=0;sketch=1;hachureGap=4;jiggle=2;curveFitting=1;orthogonalLoop=1;jettySize=auto;html=1;entryX=0.25;entryY=0;entryDx=0;entryDy=0;entryPerimeter=0;fontFamily=Architects Daughter;fontSource=https%3A%2F%2Ffonts.googleapis.com%2Fcss%3Ffamily%3DArchitects%2BDaughter;" edge="1" parent="zvO2mVmISyGZYsIIFdji-12" source="zvO2mVmISyGZYsIIFdji-19" target="zvO2mVmISyGZYsIIFdji-24">
          <mxGeometry relative="1" as="geometry" />
        </mxCell>
        <mxCell id="zvO2mVmISyGZYsIIFdji-34" style="edgeStyle=orthogonalEdgeStyle;rounded=0;sketch=1;hachureGap=4;jiggle=2;curveFitting=1;orthogonalLoop=1;jettySize=auto;html=1;entryX=0.5;entryY=0;entryDx=0;entryDy=0;entryPerimeter=0;fontFamily=Architects Daughter;fontSource=https%3A%2F%2Ffonts.googleapis.com%2Fcss%3Ffamily%3DArchitects%2BDaughter;" edge="1" parent="zvO2mVmISyGZYsIIFdji-12" source="zvO2mVmISyGZYsIIFdji-19" target="zvO2mVmISyGZYsIIFdji-26">
          <mxGeometry relative="1" as="geometry" />
        </mxCell>
        <mxCell id="zvO2mVmISyGZYsIIFdji-35" style="edgeStyle=orthogonalEdgeStyle;rounded=0;sketch=1;hachureGap=4;jiggle=2;curveFitting=1;orthogonalLoop=1;jettySize=auto;html=1;entryX=0.5;entryY=0;entryDx=0;entryDy=0;entryPerimeter=0;fontFamily=Architects Daughter;fontSource=https%3A%2F%2Ffonts.googleapis.com%2Fcss%3Ffamily%3DArchitects%2BDaughter;" edge="1" parent="zvO2mVmISyGZYsIIFdji-12" source="zvO2mVmISyGZYsIIFdji-19" target="zvO2mVmISyGZYsIIFdji-28">
          <mxGeometry relative="1" as="geometry" />
        </mxCell>
        <mxCell id="zvO2mVmISyGZYsIIFdji-36" value="Library Manager" style="text;html=1;align=center;verticalAlign=middle;whiteSpace=wrap;rounded=0;fontFamily=Architects Daughter;fontSource=https%3A%2F%2Ffonts.googleapis.com%2Fcss%3Ffamily%3DArchitects%2BDaughter;" vertex="1" parent="zvO2mVmISyGZYsIIFdji-12">
          <mxGeometry x="350" y="680" width="390" height="30" as="geometry" />
        </mxCell>
        <mxCell id="zvO2mVmISyGZYsIIFdji-37" style="edgeStyle=orthogonalEdgeStyle;rounded=0;sketch=1;hachureGap=4;jiggle=2;curveFitting=1;orthogonalLoop=1;jettySize=auto;html=1;fontFamily=Architects Daughter;fontSource=https%3A%2F%2Ffonts.googleapis.com%2Fcss%3Ffamily%3DArchitects%2BDaughter;" edge="1" parent="1" source="zvO2mVmISyGZYsIIFdji-42" target="zvO2mVmISyGZYsIIFdji-70">
          <mxGeometry relative="1" as="geometry" />
        </mxCell>
        <mxCell id="zvO2mVmISyGZYsIIFdji-38" style="edgeStyle=orthogonalEdgeStyle;rounded=0;sketch=1;hachureGap=4;jiggle=2;curveFitting=1;orthogonalLoop=1;jettySize=auto;html=1;fontFamily=Architects Daughter;fontSource=https%3A%2F%2Ffonts.googleapis.com%2Fcss%3Ffamily%3DArchitects%2BDaughter;" edge="1" parent="1" source="zvO2mVmISyGZYsIIFdji-42" target="zvO2mVmISyGZYsIIFdji-73">
          <mxGeometry relative="1" as="geometry" />
        </mxCell>
        <mxCell id="zvO2mVmISyGZYsIIFdji-39" style="edgeStyle=orthogonalEdgeStyle;rounded=0;sketch=1;hachureGap=4;jiggle=2;curveFitting=1;orthogonalLoop=1;jettySize=auto;html=1;fontFamily=Architects Daughter;fontSource=https%3A%2F%2Ffonts.googleapis.com%2Fcss%3Ffamily%3DArchitects%2BDaughter;" edge="1" parent="1" source="zvO2mVmISyGZYsIIFdji-42" target="zvO2mVmISyGZYsIIFdji-74">
          <mxGeometry relative="1" as="geometry" />
        </mxCell>
        <mxCell id="zvO2mVmISyGZYsIIFdji-40" style="edgeStyle=orthogonalEdgeStyle;rounded=0;sketch=1;hachureGap=4;jiggle=2;curveFitting=1;orthogonalLoop=1;jettySize=auto;html=1;fontFamily=Architects Daughter;fontSource=https%3A%2F%2Ffonts.googleapis.com%2Fcss%3Ffamily%3DArchitects%2BDaughter;" edge="1" parent="1" source="zvO2mVmISyGZYsIIFdji-42" target="zvO2mVmISyGZYsIIFdji-76">
          <mxGeometry relative="1" as="geometry" />
        </mxCell>
        <mxCell id="zvO2mVmISyGZYsIIFdji-41" style="edgeStyle=orthogonalEdgeStyle;rounded=0;sketch=1;hachureGap=4;jiggle=2;curveFitting=1;orthogonalLoop=1;jettySize=auto;html=1;fontFamily=Architects Daughter;fontSource=https%3A%2F%2Ffonts.googleapis.com%2Fcss%3Ffamily%3DArchitects%2BDaughter;" edge="1" parent="1" source="zvO2mVmISyGZYsIIFdji-42" target="zvO2mVmISyGZYsIIFdji-78">
          <mxGeometry relative="1" as="geometry" />
        </mxCell>
        <mxCell id="zvO2mVmISyGZYsIIFdji-42" value="Home DashBoard" style="html=1;whiteSpace=wrap;strokeColor=none;fillColor=#0079D6;labelPosition=center;verticalLabelPosition=middle;verticalAlign=top;align=center;fontSize=12;outlineConnect=0;spacingTop=-6;fontColor=#FFFFFF;sketch=0;shape=mxgraph.sitemap.page;hachureGap=4;jiggle=2;curveFitting=1;fontFamily=Architects Daughter;fontSource=https%3A%2F%2Ffonts.googleapis.com%2Fcss%3Ffamily%3DArchitects%2BDaughter;" vertex="1" parent="1">
          <mxGeometry x="1870" y="-450" width="120" height="70" as="geometry" />
        </mxCell>
        <mxCell id="zvO2mVmISyGZYsIIFdji-43" style="edgeStyle=orthogonalEdgeStyle;rounded=0;sketch=1;hachureGap=4;jiggle=2;curveFitting=1;orthogonalLoop=1;jettySize=auto;html=1;fontFamily=Architects Daughter;fontSource=https%3A%2F%2Ffonts.googleapis.com%2Fcss%3Ffamily%3DArchitects%2BDaughter;" edge="1" parent="1" source="zvO2mVmISyGZYsIIFdji-51" target="zvO2mVmISyGZYsIIFdji-44">
          <mxGeometry relative="1" as="geometry" />
        </mxCell>
        <mxCell id="zvO2mVmISyGZYsIIFdji-44" value="Penalty Page" style="html=1;whiteSpace=wrap;strokeColor=none;fillColor=#0079D6;labelPosition=center;verticalLabelPosition=middle;verticalAlign=top;align=center;fontSize=12;outlineConnect=0;spacingTop=-6;fontColor=#FFFFFF;sketch=0;shape=mxgraph.sitemap.page;hachureGap=4;jiggle=2;curveFitting=1;fontFamily=Architects Daughter;fontSource=https%3A%2F%2Ffonts.googleapis.com%2Fcss%3Ffamily%3DArchitects%2BDaughter;" vertex="1" parent="1">
          <mxGeometry x="1190" y="50" width="120" height="70" as="geometry" />
        </mxCell>
        <mxCell id="zvO2mVmISyGZYsIIFdji-45" style="edgeStyle=orthogonalEdgeStyle;rounded=0;sketch=1;hachureGap=4;jiggle=2;curveFitting=1;orthogonalLoop=1;jettySize=auto;html=1;fontFamily=Architects Daughter;fontSource=https%3A%2F%2Ffonts.googleapis.com%2Fcss%3Ffamily%3DArchitects%2BDaughter;" edge="1" parent="1" source="zvO2mVmISyGZYsIIFdji-51" target="zvO2mVmISyGZYsIIFdji-54">
          <mxGeometry relative="1" as="geometry" />
        </mxCell>
        <mxCell id="zvO2mVmISyGZYsIIFdji-46" style="edgeStyle=orthogonalEdgeStyle;rounded=0;sketch=1;hachureGap=4;jiggle=2;curveFitting=1;orthogonalLoop=1;jettySize=auto;html=1;fontFamily=Architects Daughter;fontSource=https%3A%2F%2Ffonts.googleapis.com%2Fcss%3Ffamily%3DArchitects%2BDaughter;" edge="1" parent="1" source="zvO2mVmISyGZYsIIFdji-51" target="zvO2mVmISyGZYsIIFdji-57">
          <mxGeometry relative="1" as="geometry" />
        </mxCell>
        <mxCell id="zvO2mVmISyGZYsIIFdji-47" style="edgeStyle=orthogonalEdgeStyle;rounded=0;sketch=1;hachureGap=4;jiggle=2;curveFitting=1;orthogonalLoop=1;jettySize=auto;html=1;fontFamily=Architects Daughter;fontSource=https%3A%2F%2Ffonts.googleapis.com%2Fcss%3Ffamily%3DArchitects%2BDaughter;" edge="1" parent="1" source="zvO2mVmISyGZYsIIFdji-51" target="zvO2mVmISyGZYsIIFdji-59">
          <mxGeometry relative="1" as="geometry" />
        </mxCell>
        <mxCell id="zvO2mVmISyGZYsIIFdji-48" style="edgeStyle=orthogonalEdgeStyle;rounded=0;sketch=1;hachureGap=4;jiggle=2;curveFitting=1;orthogonalLoop=1;jettySize=auto;html=1;fontFamily=Architects Daughter;fontSource=https%3A%2F%2Ffonts.googleapis.com%2Fcss%3Ffamily%3DArchitects%2BDaughter;" edge="1" parent="1" source="zvO2mVmISyGZYsIIFdji-51" target="zvO2mVmISyGZYsIIFdji-61">
          <mxGeometry relative="1" as="geometry" />
        </mxCell>
        <mxCell id="zvO2mVmISyGZYsIIFdji-49" style="edgeStyle=orthogonalEdgeStyle;rounded=0;sketch=1;hachureGap=4;jiggle=2;curveFitting=1;orthogonalLoop=1;jettySize=auto;html=1;fontFamily=Architects Daughter;fontSource=https%3A%2F%2Ffonts.googleapis.com%2Fcss%3Ffamily%3DArchitects%2BDaughter;" edge="1" parent="1" source="zvO2mVmISyGZYsIIFdji-51" target="zvO2mVmISyGZYsIIFdji-62">
          <mxGeometry relative="1" as="geometry" />
        </mxCell>
        <mxCell id="zvO2mVmISyGZYsIIFdji-50" style="edgeStyle=orthogonalEdgeStyle;rounded=0;sketch=1;hachureGap=4;jiggle=2;curveFitting=1;orthogonalLoop=1;jettySize=auto;html=1;fontFamily=Architects Daughter;fontSource=https%3A%2F%2Ffonts.googleapis.com%2Fcss%3Ffamily%3DArchitects%2BDaughter;" edge="1" parent="1" source="zvO2mVmISyGZYsIIFdji-51" target="zvO2mVmISyGZYsIIFdji-63">
          <mxGeometry relative="1" as="geometry" />
        </mxCell>
        <mxCell id="zvO2mVmISyGZYsIIFdji-51" value="Home Dashboard" style="html=1;whiteSpace=wrap;strokeColor=none;fillColor=#0079D6;labelPosition=center;verticalLabelPosition=middle;verticalAlign=top;align=center;fontSize=12;outlineConnect=0;spacingTop=-6;fontColor=#FFFFFF;sketch=0;shape=mxgraph.sitemap.home;hachureGap=4;jiggle=2;curveFitting=1;fontFamily=Architects Daughter;fontSource=https%3A%2F%2Ffonts.googleapis.com%2Fcss%3Ffamily%3DArchitects%2BDaughter;" vertex="1" parent="1">
          <mxGeometry x="760" y="-290" width="120" height="60" as="geometry" />
        </mxCell>
        <mxCell id="zvO2mVmISyGZYsIIFdji-52" style="edgeStyle=orthogonalEdgeStyle;rounded=0;sketch=1;hachureGap=4;jiggle=2;curveFitting=1;orthogonalLoop=1;jettySize=auto;html=1;fontFamily=Architects Daughter;fontSource=https%3A%2F%2Ffonts.googleapis.com%2Fcss%3Ffamily%3DArchitects%2BDaughter;" edge="1" parent="1" source="zvO2mVmISyGZYsIIFdji-53" target="zvO2mVmISyGZYsIIFdji-51">
          <mxGeometry relative="1" as="geometry" />
        </mxCell>
        <mxCell id="zvO2mVmISyGZYsIIFdji-53" value="Login Page" style="html=1;whiteSpace=wrap;strokeColor=none;fillColor=#0079D6;labelPosition=center;verticalLabelPosition=middle;verticalAlign=top;align=center;fontSize=12;outlineConnect=0;spacingTop=-6;fontColor=#FFFFFF;sketch=0;shape=mxgraph.sitemap.page;hachureGap=4;jiggle=2;curveFitting=1;fontFamily=Architects Daughter;fontSource=https%3A%2F%2Ffonts.googleapis.com%2Fcss%3Ffamily%3DArchitects%2BDaughter;" vertex="1" parent="1">
          <mxGeometry x="760" y="-430" width="120" height="70" as="geometry" />
        </mxCell>
        <mxCell id="zvO2mVmISyGZYsIIFdji-54" value="Approve , Update , Manage user Account Page" style="html=1;whiteSpace=wrap;strokeColor=none;fillColor=#0079D6;labelPosition=center;verticalLabelPosition=middle;verticalAlign=top;align=center;fontSize=12;outlineConnect=0;spacingTop=-6;fontColor=#FFFFFF;sketch=0;shape=mxgraph.sitemap.page;hachureGap=4;jiggle=2;curveFitting=1;fontFamily=Architects Daughter;fontSource=https%3A%2F%2Ffonts.googleapis.com%2Fcss%3Ffamily%3DArchitects%2BDaughter;" vertex="1" parent="1">
          <mxGeometry x="950" y="-10" width="120" height="70" as="geometry" />
        </mxCell>
        <mxCell id="zvO2mVmISyGZYsIIFdji-55" value="Verify &amp;amp; Approve Account Renewal requests Page" style="html=1;whiteSpace=wrap;strokeColor=none;fillColor=#0079D6;labelPosition=center;verticalLabelPosition=middle;verticalAlign=top;align=center;fontSize=12;outlineConnect=0;spacingTop=-6;fontColor=#FFFFFF;sketch=0;shape=mxgraph.sitemap.page;hachureGap=4;jiggle=2;curveFitting=1;fontFamily=Architects Daughter;fontSource=https%3A%2F%2Ffonts.googleapis.com%2Fcss%3Ffamily%3DArchitects%2BDaughter;" vertex="1" parent="1">
          <mxGeometry x="730" y="80" width="120" height="70" as="geometry" />
        </mxCell>
        <mxCell id="zvO2mVmISyGZYsIIFdji-56" value="Book Check Out History Page" style="html=1;whiteSpace=wrap;strokeColor=none;fillColor=#0079D6;labelPosition=center;verticalLabelPosition=middle;verticalAlign=top;align=center;fontSize=12;outlineConnect=0;spacingTop=-6;fontColor=#FFFFFF;sketch=0;shape=mxgraph.sitemap.page;hachureGap=4;jiggle=2;curveFitting=1;fontFamily=Architects Daughter;fontSource=https%3A%2F%2Ffonts.googleapis.com%2Fcss%3Ffamily%3DArchitects%2BDaughter;" vertex="1" parent="1">
          <mxGeometry x="510" y="-20" width="120" height="70" as="geometry" />
        </mxCell>
        <mxCell id="zvO2mVmISyGZYsIIFdji-57" value="Add Book Page, Search Book, update book , delete , update books status&amp;nbsp; page" style="html=1;whiteSpace=wrap;strokeColor=none;fillColor=#0079D6;labelPosition=center;verticalLabelPosition=middle;verticalAlign=top;align=center;fontSize=12;outlineConnect=0;spacingTop=-6;fontColor=#FFFFFF;sketch=0;shape=mxgraph.sitemap.page;hachureGap=4;jiggle=2;curveFitting=1;fontFamily=Architects Daughter;fontSource=https%3A%2F%2Ffonts.googleapis.com%2Fcss%3Ffamily%3DArchitects%2BDaughter;" vertex="1" parent="1">
          <mxGeometry x="660" y="-70" width="120" height="70" as="geometry" />
        </mxCell>
        <mxCell id="zvO2mVmISyGZYsIIFdji-58" value="Issue books page (check - out)" style="html=1;whiteSpace=wrap;strokeColor=none;fillColor=#0079D6;labelPosition=center;verticalLabelPosition=middle;verticalAlign=top;align=center;fontSize=12;outlineConnect=0;spacingTop=-6;fontColor=#FFFFFF;sketch=0;shape=mxgraph.sitemap.page;hachureGap=4;jiggle=2;curveFitting=1;fontFamily=Architects Daughter;fontSource=https%3A%2F%2Ffonts.googleapis.com%2Fcss%3Ffamily%3DArchitects%2BDaughter;" vertex="1" parent="1">
          <mxGeometry x="880" y="100" width="120" height="70" as="geometry" />
        </mxCell>
        <mxCell id="zvO2mVmISyGZYsIIFdji-59" value="Receive books page(Check - in )" style="html=1;whiteSpace=wrap;strokeColor=none;fillColor=#0079D6;labelPosition=center;verticalLabelPosition=middle;verticalAlign=top;align=center;fontSize=12;outlineConnect=0;spacingTop=-6;fontColor=#FFFFFF;sketch=0;shape=mxgraph.sitemap.page;hachureGap=4;jiggle=2;curveFitting=1;fontFamily=Architects Daughter;fontSource=https%3A%2F%2Ffonts.googleapis.com%2Fcss%3Ffamily%3DArchitects%2BDaughter;" vertex="1" parent="1">
          <mxGeometry x="1100" y="-90" width="120" height="70" as="geometry" />
        </mxCell>
        <mxCell id="zvO2mVmISyGZYsIIFdji-60" value="Book Renewal Page" style="html=1;whiteSpace=wrap;strokeColor=none;fillColor=#0079D6;labelPosition=center;verticalLabelPosition=middle;verticalAlign=top;align=center;fontSize=12;outlineConnect=0;spacingTop=-6;fontColor=#FFFFFF;sketch=0;shape=mxgraph.sitemap.page;hachureGap=4;jiggle=2;curveFitting=1;fontFamily=Architects Daughter;fontSource=https%3A%2F%2Ffonts.googleapis.com%2Fcss%3Ffamily%3DArchitects%2BDaughter;" vertex="1" parent="1">
          <mxGeometry x="580" y="100" width="120" height="70" as="geometry" />
        </mxCell>
        <mxCell id="zvO2mVmISyGZYsIIFdji-61" value="Library Card Renewal Page" style="html=1;whiteSpace=wrap;strokeColor=none;fillColor=#0079D6;labelPosition=center;verticalLabelPosition=middle;verticalAlign=top;align=center;fontSize=12;outlineConnect=0;spacingTop=-6;fontColor=#FFFFFF;sketch=0;shape=mxgraph.sitemap.page;hachureGap=4;jiggle=2;curveFitting=1;fontFamily=Architects Daughter;fontSource=https%3A%2F%2Ffonts.googleapis.com%2Fcss%3Ffamily%3DArchitects%2BDaughter;" vertex="1" parent="1">
          <mxGeometry x="800" y="-30" width="120" height="70" as="geometry" />
        </mxCell>
        <mxCell id="zvO2mVmISyGZYsIIFdji-62" value="View All Users Page" style="html=1;whiteSpace=wrap;strokeColor=none;fillColor=#0079D6;labelPosition=center;verticalLabelPosition=middle;verticalAlign=top;align=center;fontSize=12;outlineConnect=0;spacingTop=-6;fontColor=#FFFFFF;sketch=0;shape=mxgraph.sitemap.page;hachureGap=4;jiggle=2;curveFitting=1;fontFamily=Architects Daughter;fontSource=https%3A%2F%2Ffonts.googleapis.com%2Fcss%3Ffamily%3DArchitects%2BDaughter;" vertex="1" parent="1">
          <mxGeometry x="1030" y="130" width="120" height="70" as="geometry" />
        </mxCell>
        <mxCell id="zvO2mVmISyGZYsIIFdji-63" value="Feedbak Page" style="html=1;whiteSpace=wrap;strokeColor=none;fillColor=#0079D6;labelPosition=center;verticalLabelPosition=middle;verticalAlign=top;align=center;fontSize=12;outlineConnect=0;spacingTop=-6;fontColor=#FFFFFF;sketch=0;shape=mxgraph.sitemap.page;hachureGap=4;jiggle=2;curveFitting=1;fontFamily=Architects Daughter;fontSource=https%3A%2F%2Ffonts.googleapis.com%2Fcss%3Ffamily%3DArchitects%2BDaughter;" vertex="1" parent="1">
          <mxGeometry x="400" y="100" width="120" height="70" as="geometry" />
        </mxCell>
        <mxCell id="zvO2mVmISyGZYsIIFdji-64" style="edgeStyle=orthogonalEdgeStyle;rounded=0;sketch=1;hachureGap=4;jiggle=2;curveFitting=1;orthogonalLoop=1;jettySize=auto;html=1;entryX=0.5;entryY=0;entryDx=0;entryDy=0;entryPerimeter=0;fontFamily=Architects Daughter;fontSource=https%3A%2F%2Ffonts.googleapis.com%2Fcss%3Ffamily%3DArchitects%2BDaughter;" edge="1" parent="1" source="zvO2mVmISyGZYsIIFdji-51" target="zvO2mVmISyGZYsIIFdji-55">
          <mxGeometry relative="1" as="geometry" />
        </mxCell>
        <mxCell id="zvO2mVmISyGZYsIIFdji-65" style="edgeStyle=orthogonalEdgeStyle;rounded=0;sketch=1;hachureGap=4;jiggle=2;curveFitting=1;orthogonalLoop=1;jettySize=auto;html=1;entryX=0.25;entryY=0;entryDx=0;entryDy=0;entryPerimeter=0;fontFamily=Architects Daughter;fontSource=https%3A%2F%2Ffonts.googleapis.com%2Fcss%3Ffamily%3DArchitects%2BDaughter;" edge="1" parent="1" source="zvO2mVmISyGZYsIIFdji-51" target="zvO2mVmISyGZYsIIFdji-56">
          <mxGeometry relative="1" as="geometry" />
        </mxCell>
        <mxCell id="zvO2mVmISyGZYsIIFdji-66" style="edgeStyle=orthogonalEdgeStyle;rounded=0;sketch=1;hachureGap=4;jiggle=2;curveFitting=1;orthogonalLoop=1;jettySize=auto;html=1;entryX=0.5;entryY=0;entryDx=0;entryDy=0;entryPerimeter=0;fontFamily=Architects Daughter;fontSource=https%3A%2F%2Ffonts.googleapis.com%2Fcss%3Ffamily%3DArchitects%2BDaughter;" edge="1" parent="1" source="zvO2mVmISyGZYsIIFdji-51" target="zvO2mVmISyGZYsIIFdji-58">
          <mxGeometry relative="1" as="geometry" />
        </mxCell>
        <mxCell id="zvO2mVmISyGZYsIIFdji-67" style="edgeStyle=orthogonalEdgeStyle;rounded=0;sketch=1;hachureGap=4;jiggle=2;curveFitting=1;orthogonalLoop=1;jettySize=auto;html=1;entryX=0.5;entryY=0;entryDx=0;entryDy=0;entryPerimeter=0;fontFamily=Architects Daughter;fontSource=https%3A%2F%2Ffonts.googleapis.com%2Fcss%3Ffamily%3DArchitects%2BDaughter;" edge="1" parent="1" source="zvO2mVmISyGZYsIIFdji-51" target="zvO2mVmISyGZYsIIFdji-60">
          <mxGeometry relative="1" as="geometry" />
        </mxCell>
        <mxCell id="zvO2mVmISyGZYsIIFdji-68" value="Library Assistants" style="text;html=1;align=center;verticalAlign=middle;whiteSpace=wrap;rounded=0;fontFamily=Architects Daughter;fontSource=https%3A%2F%2Ffonts.googleapis.com%2Fcss%3Ffamily%3DArchitects%2BDaughter;" vertex="1" parent="1">
          <mxGeometry x="750" y="250" width="390" height="30" as="geometry" />
        </mxCell>
        <mxCell id="zvO2mVmISyGZYsIIFdji-69" value="Register Page" style="html=1;whiteSpace=wrap;strokeColor=none;fillColor=#0079D6;labelPosition=center;verticalLabelPosition=middle;verticalAlign=top;align=center;fontSize=12;outlineConnect=0;spacingTop=-6;fontColor=#FFFFFF;sketch=0;shape=mxgraph.sitemap.page;hachureGap=4;jiggle=2;curveFitting=1;fontFamily=Architects Daughter;fontSource=https%3A%2F%2Ffonts.googleapis.com%2Fcss%3Ffamily%3DArchitects%2BDaughter;" vertex="1" parent="1">
          <mxGeometry x="1860" y="-660" width="120" height="70" as="geometry" />
        </mxCell>
        <mxCell id="zvO2mVmISyGZYsIIFdji-70" value="Update Account Page" style="html=1;whiteSpace=wrap;strokeColor=none;fillColor=#0079D6;labelPosition=center;verticalLabelPosition=middle;verticalAlign=top;align=center;fontSize=12;outlineConnect=0;spacingTop=-6;fontColor=#FFFFFF;sketch=0;shape=mxgraph.sitemap.page;hachureGap=4;jiggle=2;curveFitting=1;fontFamily=Architects Daughter;fontSource=https%3A%2F%2Ffonts.googleapis.com%2Fcss%3Ffamily%3DArchitects%2BDaughter;" vertex="1" parent="1">
          <mxGeometry x="1500" y="-180" width="120" height="70" as="geometry" />
        </mxCell>
        <mxCell id="zvO2mVmISyGZYsIIFdji-71" value="View All Books page" style="html=1;whiteSpace=wrap;strokeColor=none;fillColor=#0079D6;labelPosition=center;verticalLabelPosition=middle;verticalAlign=top;align=center;fontSize=12;outlineConnect=0;spacingTop=-6;fontColor=#FFFFFF;sketch=0;shape=mxgraph.sitemap.page;hachureGap=4;jiggle=2;curveFitting=1;fontFamily=Architects Daughter;fontSource=https%3A%2F%2Ffonts.googleapis.com%2Fcss%3Ffamily%3DArchitects%2BDaughter;" vertex="1" parent="1">
          <mxGeometry x="1580" y="-320" width="120" height="70" as="geometry" />
        </mxCell>
        <mxCell id="zvO2mVmISyGZYsIIFdji-72" style="edgeStyle=orthogonalEdgeStyle;rounded=0;sketch=1;hachureGap=4;jiggle=2;curveFitting=1;orthogonalLoop=1;jettySize=auto;html=1;exitX=0.5;exitY=1;exitDx=0;exitDy=0;exitPerimeter=0;fontFamily=Architects Daughter;fontSource=https%3A%2F%2Ffonts.googleapis.com%2Fcss%3Ffamily%3DArchitects%2BDaughter;" edge="1" parent="1" source="zvO2mVmISyGZYsIIFdji-61" target="zvO2mVmISyGZYsIIFdji-61">
          <mxGeometry relative="1" as="geometry" />
        </mxCell>
        <mxCell id="zvO2mVmISyGZYsIIFdji-73" value="Reserve Book Page" style="html=1;whiteSpace=wrap;strokeColor=none;fillColor=#0079D6;labelPosition=center;verticalLabelPosition=middle;verticalAlign=top;align=center;fontSize=12;outlineConnect=0;spacingTop=-6;fontColor=#FFFFFF;sketch=0;shape=mxgraph.sitemap.page;hachureGap=4;jiggle=2;curveFitting=1;fontFamily=Architects Daughter;fontSource=https%3A%2F%2Ffonts.googleapis.com%2Fcss%3Ffamily%3DArchitects%2BDaughter;" vertex="1" parent="1">
          <mxGeometry x="1680" y="-220" width="120" height="70" as="geometry" />
        </mxCell>
        <mxCell id="zvO2mVmISyGZYsIIFdji-74" value="view All Enrolled Student Page" style="html=1;whiteSpace=wrap;strokeColor=none;fillColor=#0079D6;labelPosition=center;verticalLabelPosition=middle;verticalAlign=top;align=center;fontSize=12;outlineConnect=0;spacingTop=-6;fontColor=#FFFFFF;sketch=0;shape=mxgraph.sitemap.page;hachureGap=4;jiggle=2;curveFitting=1;fontFamily=Architects Daughter;fontSource=https%3A%2F%2Ffonts.googleapis.com%2Fcss%3Ffamily%3DArchitects%2BDaughter;" vertex="1" parent="1">
          <mxGeometry x="1760" y="-330" width="120" height="70" as="geometry" />
        </mxCell>
        <mxCell id="zvO2mVmISyGZYsIIFdji-75" value="Issue Books Page(Check- Out)" style="html=1;whiteSpace=wrap;strokeColor=none;fillColor=#0079D6;labelPosition=center;verticalLabelPosition=middle;verticalAlign=top;align=center;fontSize=12;outlineConnect=0;spacingTop=-6;fontColor=#FFFFFF;sketch=0;shape=mxgraph.sitemap.page;hachureGap=4;jiggle=2;curveFitting=1;fontFamily=Architects Daughter;fontSource=https%3A%2F%2Ffonts.googleapis.com%2Fcss%3Ffamily%3DArchitects%2BDaughter;" vertex="1" parent="1">
          <mxGeometry x="1770" y="-120" width="120" height="70" as="geometry" />
        </mxCell>
        <mxCell id="zvO2mVmISyGZYsIIFdji-76" value="Receive Books Page (Check - in )" style="html=1;whiteSpace=wrap;strokeColor=none;fillColor=#0079D6;labelPosition=center;verticalLabelPosition=middle;verticalAlign=top;align=center;fontSize=12;outlineConnect=0;spacingTop=-6;fontColor=#FFFFFF;sketch=0;shape=mxgraph.sitemap.page;hachureGap=4;jiggle=2;curveFitting=1;fontFamily=Architects Daughter;fontSource=https%3A%2F%2Ffonts.googleapis.com%2Fcss%3Ffamily%3DArchitects%2BDaughter;" vertex="1" parent="1">
          <mxGeometry x="1920" y="-130" width="120" height="70" as="geometry" />
        </mxCell>
        <mxCell id="zvO2mVmISyGZYsIIFdji-77" value="View Own due Date Page" style="html=1;whiteSpace=wrap;strokeColor=none;fillColor=#0079D6;labelPosition=center;verticalLabelPosition=middle;verticalAlign=top;align=center;fontSize=12;outlineConnect=0;spacingTop=-6;fontColor=#FFFFFF;sketch=0;shape=mxgraph.sitemap.page;hachureGap=4;jiggle=2;curveFitting=1;fontFamily=Architects Daughter;fontSource=https%3A%2F%2Ffonts.googleapis.com%2Fcss%3Ffamily%3DArchitects%2BDaughter;" vertex="1" parent="1">
          <mxGeometry x="2020" y="-295" width="120" height="70" as="geometry" />
        </mxCell>
        <mxCell id="zvO2mVmISyGZYsIIFdji-78" value="Penalty Page" style="html=1;whiteSpace=wrap;strokeColor=none;fillColor=#0079D6;labelPosition=center;verticalLabelPosition=middle;verticalAlign=top;align=center;fontSize=12;outlineConnect=0;spacingTop=-6;fontColor=#FFFFFF;sketch=0;shape=mxgraph.sitemap.page;hachureGap=4;jiggle=2;curveFitting=1;fontFamily=Architects Daughter;fontSource=https%3A%2F%2Ffonts.googleapis.com%2Fcss%3Ffamily%3DArchitects%2BDaughter;" vertex="1" parent="1">
          <mxGeometry x="2110" y="-150" width="120" height="70" as="geometry" />
        </mxCell>
        <mxCell id="zvO2mVmISyGZYsIIFdji-79" value="Book Renewal Page" style="html=1;whiteSpace=wrap;strokeColor=none;fillColor=#0079D6;labelPosition=center;verticalLabelPosition=middle;verticalAlign=top;align=center;fontSize=12;outlineConnect=0;spacingTop=-6;fontColor=#FFFFFF;sketch=0;shape=mxgraph.sitemap.page;hachureGap=4;jiggle=2;curveFitting=1;fontFamily=Architects Daughter;fontSource=https%3A%2F%2Ffonts.googleapis.com%2Fcss%3Ffamily%3DArchitects%2BDaughter;" vertex="1" parent="1">
          <mxGeometry x="2220" y="-230" width="120" height="70" as="geometry" />
        </mxCell>
        <mxCell id="zvO2mVmISyGZYsIIFdji-80" value="feedback Page" style="html=1;whiteSpace=wrap;strokeColor=none;fillColor=#0079D6;labelPosition=center;verticalLabelPosition=middle;verticalAlign=top;align=center;fontSize=12;outlineConnect=0;spacingTop=-6;fontColor=#FFFFFF;sketch=0;shape=mxgraph.sitemap.page;hachureGap=4;jiggle=2;curveFitting=1;fontFamily=Architects Daughter;fontSource=https%3A%2F%2Ffonts.googleapis.com%2Fcss%3Ffamily%3DArchitects%2BDaughter;" vertex="1" parent="1">
          <mxGeometry x="2310" y="-130" width="120" height="70" as="geometry" />
        </mxCell>
        <mxCell id="zvO2mVmISyGZYsIIFdji-81" style="edgeStyle=orthogonalEdgeStyle;rounded=0;sketch=1;hachureGap=4;jiggle=2;curveFitting=1;orthogonalLoop=1;jettySize=auto;html=1;fontFamily=Architects Daughter;fontSource=https%3A%2F%2Ffonts.googleapis.com%2Fcss%3Ffamily%3DArchitects%2BDaughter;" edge="1" parent="1" source="zvO2mVmISyGZYsIIFdji-82" target="zvO2mVmISyGZYsIIFdji-94">
          <mxGeometry relative="1" as="geometry" />
        </mxCell>
        <mxCell id="zvO2mVmISyGZYsIIFdji-82" value="Register Page" style="html=1;whiteSpace=wrap;strokeColor=none;fillColor=#0079D6;labelPosition=center;verticalLabelPosition=middle;verticalAlign=top;align=center;fontSize=12;outlineConnect=0;spacingTop=-6;fontColor=#FFFFFF;sketch=0;shape=mxgraph.sitemap.page;hachureGap=4;jiggle=2;curveFitting=1;fontFamily=Architects Daughter;fontSource=https%3A%2F%2Ffonts.googleapis.com%2Fcss%3Ffamily%3DArchitects%2BDaughter;" vertex="1" parent="1">
          <mxGeometry x="2975" y="-690" width="120" height="70" as="geometry" />
        </mxCell>
        <mxCell id="zvO2mVmISyGZYsIIFdji-83" style="edgeStyle=orthogonalEdgeStyle;rounded=0;sketch=1;hachureGap=4;jiggle=2;curveFitting=1;orthogonalLoop=1;jettySize=auto;html=1;fontFamily=Architects Daughter;fontSource=https%3A%2F%2Ffonts.googleapis.com%2Fcss%3Ffamily%3DArchitects%2BDaughter;" edge="1" parent="1" source="zvO2mVmISyGZYsIIFdji-84" target="zvO2mVmISyGZYsIIFdji-42">
          <mxGeometry relative="1" as="geometry" />
        </mxCell>
        <mxCell id="zvO2mVmISyGZYsIIFdji-84" value="Login Page" style="html=1;whiteSpace=wrap;strokeColor=none;fillColor=#0079D6;labelPosition=center;verticalLabelPosition=middle;verticalAlign=top;align=center;fontSize=12;outlineConnect=0;spacingTop=-6;fontColor=#FFFFFF;sketch=0;shape=mxgraph.sitemap.page;hachureGap=4;jiggle=2;curveFitting=1;fontFamily=Architects Daughter;fontSource=https%3A%2F%2Ffonts.googleapis.com%2Fcss%3Ffamily%3DArchitects%2BDaughter;" vertex="1" parent="1">
          <mxGeometry x="1860" y="-550" width="120" height="70" as="geometry" />
        </mxCell>
        <mxCell id="zvO2mVmISyGZYsIIFdji-85" style="edgeStyle=orthogonalEdgeStyle;rounded=0;sketch=1;hachureGap=4;jiggle=2;curveFitting=1;orthogonalLoop=1;jettySize=auto;html=1;entryX=0.5;entryY=0;entryDx=0;entryDy=0;entryPerimeter=0;fontFamily=Architects Daughter;fontSource=https%3A%2F%2Ffonts.googleapis.com%2Fcss%3Ffamily%3DArchitects%2BDaughter;" edge="1" parent="1" source="zvO2mVmISyGZYsIIFdji-7" target="zvO2mVmISyGZYsIIFdji-69">
          <mxGeometry relative="1" as="geometry" />
        </mxCell>
        <mxCell id="zvO2mVmISyGZYsIIFdji-86" style="edgeStyle=orthogonalEdgeStyle;rounded=0;sketch=1;hachureGap=4;jiggle=2;curveFitting=1;orthogonalLoop=1;jettySize=auto;html=1;entryX=0.5;entryY=0;entryDx=0;entryDy=0;entryPerimeter=0;fontFamily=Architects Daughter;fontSource=https%3A%2F%2Ffonts.googleapis.com%2Fcss%3Ffamily%3DArchitects%2BDaughter;" edge="1" parent="1" source="zvO2mVmISyGZYsIIFdji-69" target="zvO2mVmISyGZYsIIFdji-84">
          <mxGeometry relative="1" as="geometry" />
        </mxCell>
        <mxCell id="zvO2mVmISyGZYsIIFdji-87" style="edgeStyle=orthogonalEdgeStyle;rounded=0;sketch=1;hachureGap=4;jiggle=2;curveFitting=1;orthogonalLoop=1;jettySize=auto;html=1;entryX=0.5;entryY=0;entryDx=0;entryDy=0;entryPerimeter=0;fontFamily=Architects Daughter;fontSource=https%3A%2F%2Ffonts.googleapis.com%2Fcss%3Ffamily%3DArchitects%2BDaughter;" edge="1" parent="1" source="zvO2mVmISyGZYsIIFdji-42" target="zvO2mVmISyGZYsIIFdji-71">
          <mxGeometry relative="1" as="geometry" />
        </mxCell>
        <mxCell id="zvO2mVmISyGZYsIIFdji-88" style="edgeStyle=orthogonalEdgeStyle;rounded=0;sketch=1;hachureGap=4;jiggle=2;curveFitting=1;orthogonalLoop=1;jettySize=auto;html=1;entryX=0.75;entryY=0;entryDx=0;entryDy=0;entryPerimeter=0;fontFamily=Architects Daughter;fontSource=https%3A%2F%2Ffonts.googleapis.com%2Fcss%3Ffamily%3DArchitects%2BDaughter;" edge="1" parent="1" source="zvO2mVmISyGZYsIIFdji-42" target="zvO2mVmISyGZYsIIFdji-75">
          <mxGeometry relative="1" as="geometry" />
        </mxCell>
        <mxCell id="zvO2mVmISyGZYsIIFdji-89" style="edgeStyle=orthogonalEdgeStyle;rounded=0;sketch=1;hachureGap=4;jiggle=2;curveFitting=1;orthogonalLoop=1;jettySize=auto;html=1;entryX=0.5;entryY=0;entryDx=0;entryDy=0;entryPerimeter=0;fontFamily=Architects Daughter;fontSource=https%3A%2F%2Ffonts.googleapis.com%2Fcss%3Ffamily%3DArchitects%2BDaughter;" edge="1" parent="1" source="zvO2mVmISyGZYsIIFdji-42" target="zvO2mVmISyGZYsIIFdji-77">
          <mxGeometry relative="1" as="geometry" />
        </mxCell>
        <mxCell id="zvO2mVmISyGZYsIIFdji-90" style="edgeStyle=orthogonalEdgeStyle;rounded=0;sketch=1;hachureGap=4;jiggle=2;curveFitting=1;orthogonalLoop=1;jettySize=auto;html=1;entryX=0.75;entryY=0;entryDx=0;entryDy=0;entryPerimeter=0;fontFamily=Architects Daughter;fontSource=https%3A%2F%2Ffonts.googleapis.com%2Fcss%3Ffamily%3DArchitects%2BDaughter;" edge="1" parent="1" source="zvO2mVmISyGZYsIIFdji-42" target="zvO2mVmISyGZYsIIFdji-79">
          <mxGeometry relative="1" as="geometry" />
        </mxCell>
        <mxCell id="zvO2mVmISyGZYsIIFdji-91" style="edgeStyle=orthogonalEdgeStyle;rounded=0;sketch=1;hachureGap=4;jiggle=2;curveFitting=1;orthogonalLoop=1;jettySize=auto;html=1;entryX=0.5;entryY=0;entryDx=0;entryDy=0;entryPerimeter=0;fontFamily=Architects Daughter;fontSource=https%3A%2F%2Ffonts.googleapis.com%2Fcss%3Ffamily%3DArchitects%2BDaughter;" edge="1" parent="1" source="zvO2mVmISyGZYsIIFdji-42" target="zvO2mVmISyGZYsIIFdji-80">
          <mxGeometry relative="1" as="geometry" />
        </mxCell>
        <mxCell id="zvO2mVmISyGZYsIIFdji-92" value="Program Co-ordinators" style="text;html=1;align=center;verticalAlign=middle;whiteSpace=wrap;rounded=0;fontFamily=Architects Daughter;fontSource=https%3A%2F%2Ffonts.googleapis.com%2Fcss%3Ffamily%3DArchitects%2BDaughter;" vertex="1" parent="1">
          <mxGeometry x="1800" y="90" width="390" height="30" as="geometry" />
        </mxCell>
        <mxCell id="zvO2mVmISyGZYsIIFdji-93" style="edgeStyle=orthogonalEdgeStyle;rounded=0;sketch=1;hachureGap=4;jiggle=2;curveFitting=1;orthogonalLoop=1;jettySize=auto;html=1;fontFamily=Architects Daughter;fontSource=https%3A%2F%2Ffonts.googleapis.com%2Fcss%3Ffamily%3DArchitects%2BDaughter;" edge="1" parent="1" source="zvO2mVmISyGZYsIIFdji-94" target="zvO2mVmISyGZYsIIFdji-103">
          <mxGeometry relative="1" as="geometry" />
        </mxCell>
        <mxCell id="zvO2mVmISyGZYsIIFdji-94" value="Login Page" style="html=1;whiteSpace=wrap;strokeColor=none;fillColor=#0079D6;labelPosition=center;verticalLabelPosition=middle;verticalAlign=top;align=center;fontSize=12;outlineConnect=0;spacingTop=-6;fontColor=#FFFFFF;sketch=0;shape=mxgraph.sitemap.page;hachureGap=4;jiggle=2;curveFitting=1;fontFamily=Architects Daughter;fontSource=https%3A%2F%2Ffonts.googleapis.com%2Fcss%3Ffamily%3DArchitects%2BDaughter;" vertex="1" parent="1">
          <mxGeometry x="2975" y="-585" width="120" height="70" as="geometry" />
        </mxCell>
        <mxCell id="zvO2mVmISyGZYsIIFdji-95" value="Update Account Page" style="html=1;whiteSpace=wrap;strokeColor=none;fillColor=#0079D6;labelPosition=center;verticalLabelPosition=middle;verticalAlign=top;align=center;fontSize=12;outlineConnect=0;spacingTop=-6;fontColor=#FFFFFF;sketch=0;shape=mxgraph.sitemap.page;hachureGap=4;jiggle=2;curveFitting=1;fontFamily=Architects Daughter;fontSource=https%3A%2F%2Ffonts.googleapis.com%2Fcss%3Ffamily%3DArchitects%2BDaughter;" vertex="1" parent="1">
          <mxGeometry x="2650" y="-295" width="120" height="70" as="geometry" />
        </mxCell>
        <mxCell id="zvO2mVmISyGZYsIIFdji-96" style="edgeStyle=orthogonalEdgeStyle;rounded=0;sketch=1;hachureGap=4;jiggle=2;curveFitting=1;orthogonalLoop=1;jettySize=auto;html=1;fontFamily=Architects Daughter;fontSource=https%3A%2F%2Ffonts.googleapis.com%2Fcss%3Ffamily%3DArchitects%2BDaughter;" edge="1" parent="1" source="zvO2mVmISyGZYsIIFdji-103" target="zvO2mVmISyGZYsIIFdji-95">
          <mxGeometry relative="1" as="geometry" />
        </mxCell>
        <mxCell id="zvO2mVmISyGZYsIIFdji-97" style="edgeStyle=orthogonalEdgeStyle;rounded=0;sketch=1;hachureGap=4;jiggle=2;curveFitting=1;orthogonalLoop=1;jettySize=auto;html=1;fontFamily=Architects Daughter;fontSource=https%3A%2F%2Ffonts.googleapis.com%2Fcss%3Ffamily%3DArchitects%2BDaughter;" edge="1" parent="1" source="zvO2mVmISyGZYsIIFdji-103" target="zvO2mVmISyGZYsIIFdji-104">
          <mxGeometry relative="1" as="geometry" />
        </mxCell>
        <mxCell id="zvO2mVmISyGZYsIIFdji-98" style="edgeStyle=orthogonalEdgeStyle;rounded=0;sketch=1;hachureGap=4;jiggle=2;curveFitting=1;orthogonalLoop=1;jettySize=auto;html=1;fontFamily=Architects Daughter;fontSource=https%3A%2F%2Ffonts.googleapis.com%2Fcss%3Ffamily%3DArchitects%2BDaughter;" edge="1" parent="1" source="zvO2mVmISyGZYsIIFdji-103" target="zvO2mVmISyGZYsIIFdji-106">
          <mxGeometry relative="1" as="geometry" />
        </mxCell>
        <mxCell id="zvO2mVmISyGZYsIIFdji-99" style="edgeStyle=orthogonalEdgeStyle;rounded=0;sketch=1;hachureGap=4;jiggle=2;curveFitting=1;orthogonalLoop=1;jettySize=auto;html=1;fontFamily=Architects Daughter;fontSource=https%3A%2F%2Ffonts.googleapis.com%2Fcss%3Ffamily%3DArchitects%2BDaughter;" edge="1" parent="1" source="zvO2mVmISyGZYsIIFdji-103" target="zvO2mVmISyGZYsIIFdji-107">
          <mxGeometry relative="1" as="geometry" />
        </mxCell>
        <mxCell id="zvO2mVmISyGZYsIIFdji-100" style="edgeStyle=orthogonalEdgeStyle;rounded=0;sketch=1;hachureGap=4;jiggle=2;curveFitting=1;orthogonalLoop=1;jettySize=auto;html=1;fontFamily=Architects Daughter;fontSource=https%3A%2F%2Ffonts.googleapis.com%2Fcss%3Ffamily%3DArchitects%2BDaughter;" edge="1" parent="1" source="zvO2mVmISyGZYsIIFdji-103" target="zvO2mVmISyGZYsIIFdji-109">
          <mxGeometry relative="1" as="geometry" />
        </mxCell>
        <mxCell id="zvO2mVmISyGZYsIIFdji-101" style="edgeStyle=orthogonalEdgeStyle;rounded=0;sketch=1;hachureGap=4;jiggle=2;curveFitting=1;orthogonalLoop=1;jettySize=auto;html=1;fontFamily=Architects Daughter;fontSource=https%3A%2F%2Ffonts.googleapis.com%2Fcss%3Ffamily%3DArchitects%2BDaughter;" edge="1" parent="1" source="zvO2mVmISyGZYsIIFdji-103" target="zvO2mVmISyGZYsIIFdji-108">
          <mxGeometry relative="1" as="geometry" />
        </mxCell>
        <mxCell id="zvO2mVmISyGZYsIIFdji-102" style="edgeStyle=orthogonalEdgeStyle;rounded=0;sketch=1;hachureGap=4;jiggle=2;curveFitting=1;orthogonalLoop=1;jettySize=auto;html=1;fontFamily=Architects Daughter;fontSource=https%3A%2F%2Ffonts.googleapis.com%2Fcss%3Ffamily%3DArchitects%2BDaughter;" edge="1" parent="1" source="zvO2mVmISyGZYsIIFdji-103" target="zvO2mVmISyGZYsIIFdji-111">
          <mxGeometry relative="1" as="geometry">
            <mxPoint x="3590.000000000001" y="-350" as="targetPoint" />
          </mxGeometry>
        </mxCell>
        <mxCell id="zvO2mVmISyGZYsIIFdji-103" value="Home DashBoard" style="html=1;whiteSpace=wrap;strokeColor=none;fillColor=#0079D6;labelPosition=center;verticalLabelPosition=middle;verticalAlign=top;align=center;fontSize=12;outlineConnect=0;spacingTop=-6;fontColor=#FFFFFF;sketch=0;shape=mxgraph.sitemap.page;hachureGap=4;jiggle=2;curveFitting=1;fontFamily=Architects Daughter;fontSource=https%3A%2F%2Ffonts.googleapis.com%2Fcss%3Ffamily%3DArchitects%2BDaughter;" vertex="1" parent="1">
          <mxGeometry x="2975" y="-460" width="120" height="70" as="geometry" />
        </mxCell>
        <mxCell id="zvO2mVmISyGZYsIIFdji-104" value="View All Books Page" style="html=1;whiteSpace=wrap;strokeColor=none;fillColor=#0079D6;labelPosition=center;verticalLabelPosition=middle;verticalAlign=top;align=center;fontSize=12;outlineConnect=0;spacingTop=-6;fontColor=#FFFFFF;sketch=0;shape=mxgraph.sitemap.page;hachureGap=4;jiggle=2;curveFitting=1;fontFamily=Architects Daughter;fontSource=https%3A%2F%2Ffonts.googleapis.com%2Fcss%3Ffamily%3DArchitects%2BDaughter;" vertex="1" parent="1">
          <mxGeometry x="2750" y="-190" width="120" height="70" as="geometry" />
        </mxCell>
        <mxCell id="zvO2mVmISyGZYsIIFdji-105" value="Issue Books Page(Check Out)" style="html=1;whiteSpace=wrap;strokeColor=none;fillColor=#0079D6;labelPosition=center;verticalLabelPosition=middle;verticalAlign=top;align=center;fontSize=12;outlineConnect=0;spacingTop=-6;fontColor=#FFFFFF;sketch=0;shape=mxgraph.sitemap.page;hachureGap=4;jiggle=2;curveFitting=1;fontFamily=Architects Daughter;fontSource=https%3A%2F%2Ffonts.googleapis.com%2Fcss%3Ffamily%3DArchitects%2BDaughter;" vertex="1" parent="1">
          <mxGeometry x="2855" y="-300" width="120" height="70" as="geometry" />
        </mxCell>
        <mxCell id="zvO2mVmISyGZYsIIFdji-106" value="Receive Books Page (Check - In)" style="html=1;whiteSpace=wrap;strokeColor=none;fillColor=#0079D6;labelPosition=center;verticalLabelPosition=middle;verticalAlign=top;align=center;fontSize=12;outlineConnect=0;spacingTop=-6;fontColor=#FFFFFF;sketch=0;shape=mxgraph.sitemap.page;hachureGap=4;jiggle=2;curveFitting=1;fontFamily=Architects Daughter;fontSource=https%3A%2F%2Ffonts.googleapis.com%2Fcss%3Ffamily%3DArchitects%2BDaughter;" vertex="1" parent="1">
          <mxGeometry x="2990" y="-190" width="120" height="70" as="geometry" />
        </mxCell>
        <mxCell id="zvO2mVmISyGZYsIIFdji-107" value="view due date page" style="html=1;whiteSpace=wrap;strokeColor=none;fillColor=#0079D6;labelPosition=center;verticalLabelPosition=middle;verticalAlign=top;align=center;fontSize=12;outlineConnect=0;spacingTop=-6;fontColor=#FFFFFF;sketch=0;shape=mxgraph.sitemap.page;hachureGap=4;jiggle=2;curveFitting=1;fontFamily=Architects Daughter;fontSource=https%3A%2F%2Ffonts.googleapis.com%2Fcss%3Ffamily%3DArchitects%2BDaughter;" vertex="1" parent="1">
          <mxGeometry x="3120" y="-295" width="120" height="70" as="geometry" />
        </mxCell>
        <mxCell id="zvO2mVmISyGZYsIIFdji-108" value="Penalty Page" style="html=1;whiteSpace=wrap;strokeColor=none;fillColor=#0079D6;labelPosition=center;verticalLabelPosition=middle;verticalAlign=top;align=center;fontSize=12;outlineConnect=0;spacingTop=-6;fontColor=#FFFFFF;sketch=0;shape=mxgraph.sitemap.page;hachureGap=4;jiggle=2;curveFitting=1;fontFamily=Architects Daughter;fontSource=https%3A%2F%2Ffonts.googleapis.com%2Fcss%3Ffamily%3DArchitects%2BDaughter;" vertex="1" parent="1">
          <mxGeometry x="3340" y="-310" width="120" height="70" as="geometry" />
        </mxCell>
        <mxCell id="zvO2mVmISyGZYsIIFdji-109" value="Book Renewal Page" style="html=1;whiteSpace=wrap;strokeColor=none;fillColor=#0079D6;labelPosition=center;verticalLabelPosition=middle;verticalAlign=top;align=center;fontSize=12;outlineConnect=0;spacingTop=-6;fontColor=#FFFFFF;sketch=0;shape=mxgraph.sitemap.page;hachureGap=4;jiggle=2;curveFitting=1;fontFamily=Architects Daughter;fontSource=https%3A%2F%2Ffonts.googleapis.com%2Fcss%3Ffamily%3DArchitects%2BDaughter;" vertex="1" parent="1">
          <mxGeometry x="3250" y="-190" width="120" height="70" as="geometry" />
        </mxCell>
        <mxCell id="zvO2mVmISyGZYsIIFdji-110" value="Feedback Page" style="html=1;whiteSpace=wrap;strokeColor=none;fillColor=#0079D6;labelPosition=center;verticalLabelPosition=middle;verticalAlign=top;align=center;fontSize=12;outlineConnect=0;spacingTop=-6;fontColor=#FFFFFF;sketch=0;shape=mxgraph.sitemap.page;hachureGap=4;jiggle=2;curveFitting=1;fontFamily=Architects Daughter;fontSource=https%3A%2F%2Ffonts.googleapis.com%2Fcss%3Ffamily%3DArchitects%2BDaughter;" vertex="1" parent="1">
          <mxGeometry x="3440" y="-210" width="120" height="70" as="geometry" />
        </mxCell>
        <mxCell id="zvO2mVmISyGZYsIIFdji-111" value="feedback page" style="html=1;whiteSpace=wrap;strokeColor=none;fillColor=#0079D6;labelPosition=center;verticalLabelPosition=middle;verticalAlign=top;align=center;fontSize=12;outlineConnect=0;spacingTop=-6;fontColor=#FFFFFF;sketch=0;shape=mxgraph.sitemap.page;hachureGap=4;jiggle=2;curveFitting=1;fontFamily=Architects Daughter;fontSource=https%3A%2F%2Ffonts.googleapis.com%2Fcss%3Ffamily%3DArchitects%2BDaughter;" vertex="1" parent="1">
          <mxGeometry x="3520" y="-340" width="120" height="70" as="geometry" />
        </mxCell>
        <mxCell id="zvO2mVmISyGZYsIIFdji-112" style="edgeStyle=orthogonalEdgeStyle;rounded=0;sketch=1;hachureGap=4;jiggle=2;curveFitting=1;orthogonalLoop=1;jettySize=auto;html=1;entryX=0.5;entryY=0;entryDx=0;entryDy=0;entryPerimeter=0;fontFamily=Architects Daughter;fontSource=https%3A%2F%2Ffonts.googleapis.com%2Fcss%3Ffamily%3DArchitects%2BDaughter;" edge="1" parent="1" source="zvO2mVmISyGZYsIIFdji-7" target="zvO2mVmISyGZYsIIFdji-82">
          <mxGeometry relative="1" as="geometry" />
        </mxCell>
        <mxCell id="zvO2mVmISyGZYsIIFdji-113" style="edgeStyle=orthogonalEdgeStyle;rounded=0;sketch=1;hachureGap=4;jiggle=2;curveFitting=1;orthogonalLoop=1;jettySize=auto;html=1;entryX=0.5;entryY=0;entryDx=0;entryDy=0;entryPerimeter=0;fontFamily=Architects Daughter;fontSource=https%3A%2F%2Ffonts.googleapis.com%2Fcss%3Ffamily%3DArchitects%2BDaughter;" edge="1" parent="1" source="zvO2mVmISyGZYsIIFdji-103" target="zvO2mVmISyGZYsIIFdji-105">
          <mxGeometry relative="1" as="geometry" />
        </mxCell>
        <mxCell id="zvO2mVmISyGZYsIIFdji-114" style="edgeStyle=orthogonalEdgeStyle;rounded=0;sketch=1;hachureGap=4;jiggle=2;curveFitting=1;orthogonalLoop=1;jettySize=auto;html=1;entryX=0.25;entryY=0;entryDx=0;entryDy=0;entryPerimeter=0;fontFamily=Architects Daughter;fontSource=https%3A%2F%2Ffonts.googleapis.com%2Fcss%3Ffamily%3DArchitects%2BDaughter;" edge="1" parent="1" source="zvO2mVmISyGZYsIIFdji-103" target="zvO2mVmISyGZYsIIFdji-110">
          <mxGeometry relative="1" as="geometry" />
        </mxCell>
        <mxCell id="zvO2mVmISyGZYsIIFdji-115" value="Faculty Members / Students" style="text;html=1;align=center;verticalAlign=middle;whiteSpace=wrap;rounded=0;fontFamily=Architects Daughter;fontSource=https%3A%2F%2Ffonts.googleapis.com%2Fcss%3Ffamily%3DArchitects%2BDaughter;" vertex="1" parent="1">
          <mxGeometry x="2950" y="50" width="390" height="30" as="geometry" />
        </mxCell>
      </root>
    </mxGraphModel>
  </diagram>
</mxfile>
